<svg xmlns="http://www.w3.org/2000/svg" viewBox="0 0 1400 900" role="img" aria-label="Sea, fishing gear, and a smartphone app illustration">
  <defs>
    <linearGradient id="sky" x1="0" x2="0" y1="0" y2="1">
      <stop offset="0" stop-color="#f7fcfd"/>
      <stop offset="0.48" stop-color="#d9f0f3"/>
      <stop offset="1" stop-color="#fdf8ec"/>
    </linearGradient>
    <linearGradient id="sea" x1="0" x2="1" y1="0" y2="1">
      <stop offset="0" stop-color="#bfe5e9"/>
      <stop offset="0.55" stop-color="#6fc1cc"/>
      <stop offset="1" stop-color="#1d6d81"/>
    </linearGradient>
    <linearGradient id="phone" x1="0" x2="1" y1="0" y2="1">
      <stop offset="0" stop-color="#21495d"/>
      <stop offset="1" stop-color="#102a3b"/>
    </linearGradient>
    <linearGradient id="screen" x1="0" x2="0" y1="0" y2="1">
      <stop offset="0" stop-color="#3a9fb2"/>
      <stop offset="1" stop-color="#163b50"/>
    </linearGradient>
    <filter id="softShadow" x="-20%" y="-20%" width="140%" height="140%">
      <feDropShadow dx="0" dy="28" stdDeviation="24" flood-color="#16465a" flood-opacity="0.18"/>
    </filter>
  </defs>
  <rect width="1400" height="900" fill="url(#sky)"/>
  <circle cx="180" cy="138" r="72" fill="#f4c873" opacity="0.45"/>
  <path d="M0 352 C170 300 295 324 448 346 C665 376 817 296 1002 324 C1188 352 1282 412 1400 350 L1400 900 L0 900 Z" fill="url(#sea)" opacity="0.9"/>
  <path d="M0 420 C180 380 332 410 506 424 C742 443 888 368 1082 394 C1220 413 1322 453 1400 424" fill="none" stroke="#ffffff" stroke-width="7" opacity="0.65"/>
  <path d="M0 497 C190 458 351 484 545 503 C760 523 927 457 1129 481 C1255 496 1341 525 1400 505" fill="none" stroke="#ffffff" stroke-width="4" opacity="0.42"/>
  <path d="M0 770 L1400 606 L1400 900 L0 900 Z" fill="#d9c2a2"/>
  <path d="M0 807 L1400 650" stroke="#b89d79" stroke-width="3" opacity="0.4"/>
  <path d="M0 852 L1400 696" stroke="#b89d79" stroke-width="2" opacity="0.32"/>
  <g filter="url(#softShadow)">
    <rect x="930" y="160" width="272" height="548" rx="42" fill="url(#phone)"/>
    <rect x="954" y="194" width="224" height="480" rx="28" fill="url(#screen)"/>
    <circle cx="1066" cy="690" r="10" fill="#d7f1f3" opacity="0.75"/>
    <path d="M984 342 C1026 309 1056 390 1094 358 C1127 331 1153 343 1172 370" fill="none" stroke="#d7f1f3" stroke-width="5" stroke-linecap="round"/>
    <path d="M986 452 C1024 420 1058 480 1092 450 C1124 422 1152 438 1173 464" fill="none" stroke="#cceee9" stroke-width="4" stroke-linecap="round" opacity="0.8"/>
    <g fill="#f7fcfd" opacity="0.95">
      <ellipse cx="1038" cy="402" rx="32" ry="17"/>
      <path d="M1006 402 L978 386 L984 421 Z"/>
      <circle cx="1058" cy="398" r="4" fill="#163b50"/>
      <ellipse cx="1116" cy="508" rx="28" ry="15"/>
      <path d="M1088 508 L1064 493 L1068 522 Z"/>
      <circle cx="1132" cy="504" r="4" fill="#163b50"/>
    </g>
    <g fill="#f4c873">
      <circle cx="1000" cy="590" r="13"/>
      <circle cx="1047" cy="590" r="13" opacity="0.8"/>
      <circle cx="1094" cy="590" r="13" opacity="0.65"/>
      <circle cx="1141" cy="590" r="13" opacity="0.5"/>
    </g>
  </g>
  <g filter="url(#softShadow)">
    <rect x="642" y="580" width="300" height="120" rx="20" fill="#ffffff" opacity="0.86"/>
    <rect x="670" y="608" width="244" height="20" rx="10" fill="#d9e9eb"/>
    <rect x="670" y="646" width="150" height="18" rx="9" fill="#cceee9"/>
    <circle cx="858" cy="655" r="18" fill="#f4c873"/>
    <circle cx="895" cy="655" r="18" fill="#2ba8b8" opacity="0.78"/>
  </g>
  <path d="M260 668 C475 568 674 516 892 496" fill="none" stroke="#5b4737" stroke-width="12" stroke-linecap="round"/>
  <path d="M260 668 C438 606 645 568 900 558" fill="none" stroke="#f4f1e8" stroke-width="3" stroke-linecap="round" opacity="0.8"/>
  <path d="M888 496 C1005 480 1100 500 1208 548" fill="none" stroke="#5b4737" stroke-width="5" stroke-linecap="round"/>
  <circle cx="256" cy="668" r="24" fill="#163b50"/>
  <circle cx="256" cy="668" r="9" fill="#f4c873"/>
  <g opacity="0.42">
    <path d="M118 250 C215 179 332 174 431 241" fill="none" stroke="#7db8c1" stroke-width="26" stroke-linecap="round"/>
    <path d="M80 278 C198 210 360 207 480 279" fill="none" stroke="#ffffff" stroke-width="8" stroke-linecap="round"/>
  </g>
</svg>
